<mxfile host="Electron" agent="Mozilla/5.0 (Windows NT 10.0; Win64; x64) AppleWebKit/537.36 (KHTML, like Gecko) draw.io/23.1.5 Chrome/120.0.6099.109 Electron/28.1.0 Safari/537.36" modified="2025-05-03T15:04:08.209Z" version="23.1.5" etag="xraFHKynsrPU8tbuZtwB" type="device">
  <diagram name="Page-1" id="V55issrdiH4dnPP61nEW">
    <mxGraphModel dx="1434" dy="844" grid="1" gridSize="10" guides="1" tooltips="1" connect="1" arrows="1" fold="1" page="1" pageScale="1" pageWidth="850" pageHeight="1100" math="0" shadow="0">
      <root>
        <mxCell id="0" />
        <mxCell id="1" parent="0" />
        <mxCell id="vC-Z8-aodsh5yknw77d2-2" value="" style="strokeWidth=1;shadow=0;dashed=0;align=center;html=1;shape=mxgraph.mockup.containers.browserWindow;rSize=0;strokeColor=#666666;strokeColor2=#008cff;strokeColor3=#c4c4c4;mainText=,;recursiveResize=0;" parent="1" vertex="1">
          <mxGeometry x="90" y="70" width="960" height="690" as="geometry" />
        </mxCell>
        <mxCell id="vC-Z8-aodsh5yknw77d2-3" value="Page 1" style="strokeWidth=1;shadow=0;dashed=0;align=center;html=1;shape=mxgraph.mockup.containers.anchor;fontSize=17;fontColor=#666666;align=left;whiteSpace=wrap;" parent="vC-Z8-aodsh5yknw77d2-2" vertex="1">
          <mxGeometry x="60" y="12" width="110" height="26" as="geometry" />
        </mxCell>
        <mxCell id="vC-Z8-aodsh5yknw77d2-4" value="https://www.example.com/tasks?groupId=3" style="strokeWidth=1;shadow=0;dashed=0;align=center;html=1;shape=mxgraph.mockup.containers.anchor;rSize=0;fontSize=17;fontColor=#666666;align=left;" parent="vC-Z8-aodsh5yknw77d2-2" vertex="1">
          <mxGeometry x="130" y="60" width="250" height="26" as="geometry" />
        </mxCell>
        <mxCell id="vC-Z8-aodsh5yknw77d2-5" value="Task Groups" style="swimlane;strokeColor=#999999;swimlaneFillColor=#FFFFFF;fillColor=#ffffff;fontColor=#008CFF;fontStyle=0;childLayout=stackLayout;horizontal=1;startSize=30;horizontalStack=0;resizeParent=1;resizeParentMax=0;resizeLast=0;collapsible=0;marginBottom=0;whiteSpace=wrap;html=1;fontSize=17;" parent="vC-Z8-aodsh5yknw77d2-2" vertex="1">
          <mxGeometry y="200" width="150" height="490" as="geometry" />
        </mxCell>
        <mxCell id="vC-Z8-aodsh5yknw77d2-6" value="Group 1" style="text;spacing=0;strokeColor=none;align=left;verticalAlign=middle;spacingLeft=7;spacingRight=10;overflow=hidden;points=[[0,0.5],[1,0.5]];portConstraint=eastwest;rotatable=0;whiteSpace=wrap;html=1;fillColor=none;fontColor=#666666;fontSize=17;" parent="vC-Z8-aodsh5yknw77d2-5" vertex="1">
          <mxGeometry y="30" width="150" height="20" as="geometry" />
        </mxCell>
        <mxCell id="vC-Z8-aodsh5yknw77d2-7" value="Group 2" style="text;spacing=0;strokeColor=none;align=left;verticalAlign=middle;spacingLeft=7;spacingRight=10;overflow=hidden;points=[[0,0.5],[1,0.5]];portConstraint=eastwest;rotatable=0;whiteSpace=wrap;html=1;rSize=5;fillColor=none;fontColor=#666666;fontSize=17;" parent="vC-Z8-aodsh5yknw77d2-5" vertex="1">
          <mxGeometry y="50" width="150" height="20" as="geometry" />
        </mxCell>
        <mxCell id="vC-Z8-aodsh5yknw77d2-8" value="Group 3" style="text;spacing=0;strokeColor=none;align=left;verticalAlign=middle;spacingLeft=7;spacingRight=10;overflow=hidden;points=[[0,0.5],[1,0.5]];portConstraint=eastwest;rotatable=0;whiteSpace=wrap;html=1;rSize=5;fillColor=#DDEEFF;fontColor=#666666;fontSize=17;" parent="vC-Z8-aodsh5yknw77d2-5" vertex="1">
          <mxGeometry y="70" width="150" height="20" as="geometry" />
        </mxCell>
        <mxCell id="vC-Z8-aodsh5yknw77d2-9" value="Group 3 Review" style="text;spacing=0;strokeColor=none;align=left;verticalAlign=middle;spacingLeft=7;spacingRight=10;overflow=hidden;points=[[0,0.5],[1,0.5]];portConstraint=eastwest;rotatable=0;whiteSpace=wrap;html=1;fillColor=none;fontColor=#666666;fontSize=17;" parent="vC-Z8-aodsh5yknw77d2-5" vertex="1">
          <mxGeometry y="90" width="150" height="20" as="geometry" />
        </mxCell>
        <mxCell id="vC-Z8-aodsh5yknw77d2-10" value="" style="text;spacing=0;strokeColor=none;align=left;verticalAlign=middle;spacingLeft=7;spacingRight=10;overflow=hidden;points=[[0,0.5],[1,0.5]];portConstraint=eastwest;rotatable=0;whiteSpace=wrap;html=1;fillColor=none;fontColor=#666666;fontSize=17;" parent="vC-Z8-aodsh5yknw77d2-5" vertex="1">
          <mxGeometry y="110" width="150" height="380" as="geometry" />
        </mxCell>
        <mxCell id="vC-Z8-aodsh5yknw77d2-11" value="Header" style="strokeWidth=1;shadow=0;dashed=0;align=center;html=1;shape=mxgraph.mockup.text.textBox;fontColor=#666666;align=left;fontSize=17;spacingLeft=4;spacingTop=-3;whiteSpace=wrap;strokeColor=#666666;mainText=" parent="vC-Z8-aodsh5yknw77d2-2" vertex="1">
          <mxGeometry y="110" width="960" height="90" as="geometry" />
        </mxCell>
        <mxCell id="vC-Z8-aodsh5yknw77d2-12" value="Group 3" style="strokeWidth=1;shadow=0;dashed=0;align=left;html=1;shape=mxgraph.mockup.text.textBox;fontColor=#666666;align=left;fontSize=17;spacingLeft=4;spacingTop=-3;whiteSpace=wrap;strokeColor=#666666;mainText=" parent="vC-Z8-aodsh5yknw77d2-2" vertex="1">
          <mxGeometry x="150" y="200" width="810" height="30" as="geometry" />
        </mxCell>
        <mxCell id="vC-Z8-aodsh5yknw77d2-19" value="" style="group" parent="vC-Z8-aodsh5yknw77d2-2" vertex="1" connectable="0">
          <mxGeometry x="440" y="250" width="230" height="420" as="geometry" />
        </mxCell>
        <mxCell id="vC-Z8-aodsh5yknw77d2-21" value="" style="group" parent="vC-Z8-aodsh5yknw77d2-19" vertex="1" connectable="0">
          <mxGeometry width="230" height="420" as="geometry" />
        </mxCell>
        <mxCell id="vC-Z8-aodsh5yknw77d2-15" value="" style="rounded=1;whiteSpace=wrap;html=1;movable=1;resizable=1;rotatable=1;deletable=1;editable=1;locked=0;connectable=1;" parent="vC-Z8-aodsh5yknw77d2-21" vertex="1">
          <mxGeometry width="230" height="420" as="geometry" />
        </mxCell>
        <mxCell id="vC-Z8-aodsh5yknw77d2-16" value="In progress" style="text;html=1;align=center;verticalAlign=middle;whiteSpace=wrap;rounded=0;movable=1;resizable=1;rotatable=1;deletable=1;editable=1;locked=0;connectable=1;" parent="vC-Z8-aodsh5yknw77d2-21" vertex="1">
          <mxGeometry x="60" y="10" width="110" height="30" as="geometry" />
        </mxCell>
        <mxCell id="vC-Z8-aodsh5yknw77d2-24" value="Task 2" style="rounded=1;whiteSpace=wrap;html=1;fillColor=#fff2cc;strokeColor=#d6b656;" parent="vC-Z8-aodsh5yknw77d2-21" vertex="1">
          <mxGeometry x="10" y="60" width="210" height="50" as="geometry" />
        </mxCell>
        <mxCell id="vC-Z8-aodsh5yknw77d2-20" value="" style="group" parent="vC-Z8-aodsh5yknw77d2-2" vertex="1" connectable="0">
          <mxGeometry x="710" y="250" width="230" height="420" as="geometry" />
        </mxCell>
        <mxCell id="vC-Z8-aodsh5yknw77d2-17" value="" style="rounded=1;whiteSpace=wrap;html=1;movable=1;resizable=1;rotatable=1;deletable=1;editable=1;locked=0;connectable=1;" parent="vC-Z8-aodsh5yknw77d2-20" vertex="1">
          <mxGeometry width="230" height="420" as="geometry" />
        </mxCell>
        <mxCell id="vC-Z8-aodsh5yknw77d2-18" value="Completed" style="text;html=1;align=center;verticalAlign=middle;whiteSpace=wrap;rounded=0;movable=1;resizable=1;rotatable=1;deletable=1;editable=1;locked=0;connectable=1;" parent="vC-Z8-aodsh5yknw77d2-20" vertex="1">
          <mxGeometry x="60" y="10" width="110" height="30" as="geometry" />
        </mxCell>
        <mxCell id="vC-Z8-aodsh5yknw77d2-25" value="Task 3" style="rounded=1;whiteSpace=wrap;html=1;fillColor=#d5e8d4;strokeColor=#82b366;" parent="vC-Z8-aodsh5yknw77d2-20" vertex="1">
          <mxGeometry x="10" y="60" width="210" height="50" as="geometry" />
        </mxCell>
        <mxCell id="vC-Z8-aodsh5yknw77d2-22" value="" style="group" parent="vC-Z8-aodsh5yknw77d2-2" vertex="1" connectable="0">
          <mxGeometry x="170" y="250" width="230" height="420" as="geometry" />
        </mxCell>
        <mxCell id="vC-Z8-aodsh5yknw77d2-13" value="" style="rounded=1;whiteSpace=wrap;html=1;" parent="vC-Z8-aodsh5yknw77d2-22" vertex="1">
          <mxGeometry width="230" height="420" as="geometry" />
        </mxCell>
        <mxCell id="vC-Z8-aodsh5yknw77d2-14" value="Tasks (incomplete)" style="text;html=1;align=center;verticalAlign=middle;whiteSpace=wrap;rounded=0;" parent="vC-Z8-aodsh5yknw77d2-22" vertex="1">
          <mxGeometry x="60" y="10" width="110" height="30" as="geometry" />
        </mxCell>
        <mxCell id="vC-Z8-aodsh5yknw77d2-23" value="Task 1 - Assigned" style="rounded=1;whiteSpace=wrap;html=1;fillColor=#dae8fc;strokeColor=#6c8ebf;" parent="vC-Z8-aodsh5yknw77d2-22" vertex="1">
          <mxGeometry x="10" y="60" width="210" height="50" as="geometry" />
        </mxCell>
        <mxCell id="vC-Z8-aodsh5yknw77d2-26" value="Task 4 - Unassigned" style="rounded=1;whiteSpace=wrap;html=1;fillColor=#f8cecc;strokeColor=#b85450;" parent="vC-Z8-aodsh5yknw77d2-22" vertex="1">
          <mxGeometry x="10" y="120" width="210" height="50" as="geometry" />
        </mxCell>
        <UserObject label="Navigation Links" placeholders="1" name="Variable" id="vC-Z8-aodsh5yknw77d2-29">
          <mxCell style="text;html=1;strokeColor=none;fillColor=none;align=center;verticalAlign=middle;whiteSpace=wrap;overflow=hidden;" parent="vC-Z8-aodsh5yknw77d2-2" vertex="1">
            <mxGeometry x="800" y="180" width="150" height="20" as="geometry" />
          </mxCell>
        </UserObject>
        <mxCell id="Jv009dBd6uDRELiyDNLr-15" value="New Task" style="strokeWidth=1;shadow=0;dashed=0;align=center;html=1;shape=mxgraph.mockup.buttons.button;strokeColor=#666666;fontColor=#ffffff;mainText=;buttonStyle=round;fontSize=17;fontStyle=1;fillColor=#008cff;whiteSpace=wrap;" vertex="1" parent="vC-Z8-aodsh5yknw77d2-2">
          <mxGeometry x="230" y="204" width="100" height="20" as="geometry" />
        </mxCell>
        <mxCell id="vC-Z8-aodsh5yknw77d2-27" value="&lt;h1 style=&quot;margin-top: 0px;&quot;&gt;Group 3 Reveiw&lt;/h1&gt;&lt;p&gt;If required, a group can be created that automatically, creates new tasks based on the completed task of a certain group. In the above example completed tasks within group 3 will be shown in the &quot;Group 3 Review&quot; group.&lt;/p&gt;" style="text;html=1;whiteSpace=wrap;overflow=hidden;rounded=0;fillColor=#dae8fc;strokeColor=#6c8ebf;" parent="1" vertex="1">
          <mxGeometry x="90" y="790" width="340" height="120" as="geometry" />
        </mxCell>
        <mxCell id="vC-Z8-aodsh5yknw77d2-30" value="" style="rounded=1;whiteSpace=wrap;html=1;" parent="1" vertex="1">
          <mxGeometry x="490" y="840" width="620" height="170" as="geometry" />
        </mxCell>
        <mxCell id="vC-Z8-aodsh5yknw77d2-35" value="Title - Progress (incomplete/inprogress/completed)" style="text;strokeColor=none;fillColor=none;html=1;fontSize=18;fontStyle=1;verticalAlign=middle;align=center;" parent="1" vertex="1">
          <mxGeometry x="750" y="847" width="100" height="40" as="geometry" />
        </mxCell>
        <mxCell id="vC-Z8-aodsh5yknw77d2-36" value="Task" style="text;strokeColor=none;fillColor=none;html=1;fontSize=18;fontStyle=1;verticalAlign=middle;align=center;" parent="1" vertex="1">
          <mxGeometry x="575" y="878" width="100" height="40" as="geometry" />
        </mxCell>
        <mxCell id="vC-Z8-aodsh5yknw77d2-37" value="Start date" style="text;strokeColor=none;fillColor=none;html=1;fontSize=18;fontStyle=1;verticalAlign=middle;align=center;" parent="1" vertex="1">
          <mxGeometry x="840" y="887" width="100" height="40" as="geometry" />
        </mxCell>
        <mxCell id="vC-Z8-aodsh5yknw77d2-38" value="End date" style="text;strokeColor=none;fillColor=none;html=1;fontSize=18;fontStyle=1;verticalAlign=middle;align=center;" parent="1" vertex="1">
          <mxGeometry x="950" y="887" width="100" height="40" as="geometry" />
        </mxCell>
        <mxCell id="vC-Z8-aodsh5yknw77d2-40" value="" style="endArrow=none;html=1;rounded=0;" parent="1" edge="1">
          <mxGeometry width="50" height="50" relative="1" as="geometry">
            <mxPoint x="685" y="879" as="sourcePoint" />
            <mxPoint x="915" y="879" as="targetPoint" />
          </mxGeometry>
        </mxCell>
        <UserObject label="Task assgined to : example" id="vC-Z8-aodsh5yknw77d2-41">
          <mxCell style="text;html=1;strokeColor=none;fillColor=none;whiteSpace=wrap;align=center;verticalAlign=middle;fontColor=#0000EE;fontStyle=4;" parent="1" vertex="1">
            <mxGeometry x="920" y="980" width="180" height="40" as="geometry" />
          </mxCell>
        </UserObject>
        <mxCell id="vC-Z8-aodsh5yknw77d2-45" value="Task information aaaaaaaaaaaaaaaaaaaaaaaaaaaaa&lt;div&gt;aaaaaaaaaaaaaaaaaaaaaaaaaaa&lt;/div&gt;&lt;div&gt;aaaaaaaaaaaaaaaaaaaaaaaaa&lt;/div&gt;&lt;div&gt;aaaaaaaaaaaaaaaaaaaaaaaaa&lt;/div&gt;" style="text;html=1;align=left;verticalAlign=top;whiteSpace=wrap;rounded=0;" parent="1" vertex="1">
          <mxGeometry x="500" y="910" width="330" height="70" as="geometry" />
        </mxCell>
        <UserObject label="Expand" id="vC-Z8-aodsh5yknw77d2-46">
          <mxCell style="text;html=1;strokeColor=none;fillColor=none;whiteSpace=wrap;align=center;verticalAlign=middle;fontColor=#0000EE;fontStyle=4;" parent="1" vertex="1">
            <mxGeometry x="645" y="880" width="60" height="40" as="geometry" />
          </mxCell>
        </UserObject>
        <UserObject label="Assignment managment" id="vC-Z8-aodsh5yknw77d2-47">
          <mxCell style="text;html=1;strokeColor=none;fillColor=none;whiteSpace=wrap;align=center;verticalAlign=middle;fontColor=#0000EE;fontStyle=4;" parent="1" vertex="1">
            <mxGeometry x="780" y="980" width="140" height="40" as="geometry" />
          </mxCell>
        </UserObject>
        <mxCell id="vC-Z8-aodsh5yknw77d2-48" value="2025/04/01" style="rounded=0;whiteSpace=wrap;html=1;" parent="1" vertex="1">
          <mxGeometry x="840" y="932" width="100" height="20" as="geometry" />
        </mxCell>
        <mxCell id="vC-Z8-aodsh5yknw77d2-49" value="2025/04/01" style="rounded=0;whiteSpace=wrap;html=1;" parent="1" vertex="1">
          <mxGeometry x="950" y="932" width="100" height="20" as="geometry" />
        </mxCell>
        <mxCell id="vC-Z8-aodsh5yknw77d2-50" value="&lt;h1 style=&quot;margin-top: 0px;&quot;&gt;&lt;span style=&quot;background-color: transparent; color: light-dark(rgb(0, 0, 0), rgb(255, 255, 255));&quot;&gt;What to consider&lt;/span&gt;&lt;/h1&gt;&lt;h1 style=&quot;margin-top: 0px;&quot;&gt;&lt;span style=&quot;font-size: 12px; font-weight: 400;&quot;&gt;What the task fields should be like on inital view.&lt;/span&gt;&lt;/h1&gt;&lt;div&gt;github links/ resoures to monitor the current task&lt;/div&gt;&lt;div&gt;some time of Updates object? Updates Map&amp;lt;Date, update&amp;gt; update fields: message, created by, ....&amp;nbsp;&lt;/div&gt;&lt;div&gt;&lt;br&gt;&lt;/div&gt;&lt;div&gt;enddate only not possible&lt;/div&gt;&lt;div&gt;&lt;br&gt;&lt;/div&gt;&lt;div&gt;task creation should be group owner only or should group members also be able to add tasks&lt;/div&gt;&lt;div&gt;&lt;br&gt;&lt;/div&gt;&lt;div&gt;show createdby information for tasks&lt;/div&gt;" style="text;html=1;whiteSpace=wrap;overflow=hidden;rounded=0;fillColor=#dae8fc;strokeColor=#6c8ebf;" parent="1" vertex="1">
          <mxGeometry x="90" y="1060" width="490" height="420" as="geometry" />
        </mxCell>
        <mxCell id="vC-Z8-aodsh5yknw77d2-51" value="&lt;h1 style=&quot;margin-top: 0px;&quot;&gt;&lt;span style=&quot;background-color: transparent; color: light-dark(rgb(0, 0, 0), rgb(255, 255, 255));&quot;&gt;Task colours&lt;/span&gt;&lt;/h1&gt;&lt;div&gt;All tasks - red if unassigned&lt;/div&gt;&lt;div&gt;&lt;br&gt;&lt;/div&gt;&lt;div&gt;Incomplete assigned - Blue&lt;/div&gt;&lt;div&gt;Inprogess assigned - Yellow&lt;/div&gt;&lt;div&gt;Completed assigned - Green&lt;/div&gt;" style="text;html=1;whiteSpace=wrap;overflow=hidden;rounded=0;fillColor=#dae8fc;strokeColor=#6c8ebf;" parent="1" vertex="1">
          <mxGeometry x="90" y="920" width="340" height="130" as="geometry" />
        </mxCell>
        <mxCell id="Jv009dBd6uDRELiyDNLr-6" value="" style="group" vertex="1" connectable="0" parent="1">
          <mxGeometry x="740" y="1100" width="370" height="100" as="geometry" />
        </mxCell>
        <mxCell id="Jv009dBd6uDRELiyDNLr-3" value="" style="rounded=1;whiteSpace=wrap;html=1;" vertex="1" parent="Jv009dBd6uDRELiyDNLr-6">
          <mxGeometry width="370" height="100" as="geometry" />
        </mxCell>
        <mxCell id="Jv009dBd6uDRELiyDNLr-4" value="Assign" style="strokeWidth=1;shadow=0;dashed=0;align=center;html=1;shape=mxgraph.mockup.buttons.button;strokeColor=#666666;fontColor=#ffffff;mainText=;buttonStyle=round;fontSize=17;fontStyle=1;fillColor=#008cff;whiteSpace=wrap;" vertex="1" parent="Jv009dBd6uDRELiyDNLr-6">
          <mxGeometry x="175" y="32.5" width="90" height="35" as="geometry" />
        </mxCell>
        <mxCell id="Jv009dBd6uDRELiyDNLr-5" value="User" style="strokeWidth=1;shadow=0;dashed=0;align=center;html=1;shape=mxgraph.mockup.forms.comboBox;strokeColor=#999999;fillColor=#ddeeff;align=left;fillColor2=#aaddff;mainText=;fontColor=#666666;fontSize=17;spacingLeft=3;" vertex="1" parent="Jv009dBd6uDRELiyDNLr-6">
          <mxGeometry x="15" y="35" width="150" height="30" as="geometry" />
        </mxCell>
        <mxCell id="Jv009dBd6uDRELiyDNLr-12" value="Unassign" style="strokeWidth=1;shadow=0;dashed=0;align=center;html=1;shape=mxgraph.mockup.buttons.button;strokeColor=#b85450;mainText=;buttonStyle=round;fontSize=17;fontStyle=1;fillColor=#f8cecc;whiteSpace=wrap;" vertex="1" parent="Jv009dBd6uDRELiyDNLr-6">
          <mxGeometry x="270" y="32.5" width="90" height="35" as="geometry" />
        </mxCell>
        <mxCell id="Jv009dBd6uDRELiyDNLr-7" value="Pop up after clicking assignment management" style="text;html=1;align=center;verticalAlign=middle;whiteSpace=wrap;rounded=0;" vertex="1" parent="1">
          <mxGeometry x="800" y="1060" width="230" height="30" as="geometry" />
        </mxCell>
        <mxCell id="Jv009dBd6uDRELiyDNLr-13" value="Unassign only available if the task is already assigned" style="text;html=1;align=center;verticalAlign=middle;whiteSpace=wrap;rounded=0;" vertex="1" parent="1">
          <mxGeometry x="780" y="1210" width="310" height="30" as="geometry" />
        </mxCell>
        <mxCell id="Jv009dBd6uDRELiyDNLr-14" value="Update" style="strokeWidth=1;shadow=0;dashed=0;align=center;html=1;shape=mxgraph.mockup.buttons.button;strokeColor=#666666;fontColor=#ffffff;mainText=;buttonStyle=round;fontSize=17;fontStyle=1;fillColor=#008cff;whiteSpace=wrap;" vertex="1" parent="1">
          <mxGeometry x="880" y="960" width="120" height="20" as="geometry" />
        </mxCell>
        <mxCell id="Jv009dBd6uDRELiyDNLr-16" value="DEADLINE: YYYY/MM.DD HH:MM" style="text;html=1;align=center;verticalAlign=middle;whiteSpace=wrap;rounded=0;fontColor=#FF3333;" vertex="1" parent="1">
          <mxGeometry x="520" y="985" width="240" height="30" as="geometry" />
        </mxCell>
        <mxCell id="Jv009dBd6uDRELiyDNLr-17" value="task information when clicked...." style="text;html=1;align=center;verticalAlign=middle;whiteSpace=wrap;rounded=0;" vertex="1" parent="1">
          <mxGeometry x="690" y="800" width="210" height="30" as="geometry" />
        </mxCell>
        <mxCell id="Jv009dBd6uDRELiyDNLr-19" value="New task popup" style="text;html=1;align=center;verticalAlign=middle;whiteSpace=wrap;rounded=0;" vertex="1" parent="1">
          <mxGeometry x="805" y="1330" width="185" height="30" as="geometry" />
        </mxCell>
        <mxCell id="Jv009dBd6uDRELiyDNLr-38" value="" style="group" vertex="1" connectable="0" parent="1">
          <mxGeometry x="665" y="1380" width="505" height="610" as="geometry" />
        </mxCell>
        <mxCell id="Jv009dBd6uDRELiyDNLr-18" value="" style="rounded=1;whiteSpace=wrap;html=1;" vertex="1" parent="Jv009dBd6uDRELiyDNLr-38">
          <mxGeometry width="465" height="600" as="geometry" />
        </mxCell>
        <mxCell id="Jv009dBd6uDRELiyDNLr-20" value="&lt;b&gt;Task name*&lt;/b&gt;" style="text;html=1;align=left;verticalAlign=middle;whiteSpace=wrap;rounded=0;" vertex="1" parent="Jv009dBd6uDRELiyDNLr-38">
          <mxGeometry x="25" y="45.18518518518518" width="90" height="33.888888888888886" as="geometry" />
        </mxCell>
        <mxCell id="Jv009dBd6uDRELiyDNLr-21" value="" style="rounded=1;whiteSpace=wrap;html=1;" vertex="1" parent="Jv009dBd6uDRELiyDNLr-38">
          <mxGeometry x="105" y="45.18518518518518" width="190" height="33.888888888888886" as="geometry" />
        </mxCell>
        <mxCell id="Jv009dBd6uDRELiyDNLr-22" value="&lt;b&gt;Information*&lt;/b&gt;" style="text;html=1;align=center;verticalAlign=middle;whiteSpace=wrap;rounded=0;" vertex="1" parent="Jv009dBd6uDRELiyDNLr-38">
          <mxGeometry x="25" y="179.99555555555554" width="90" height="33.888888888888886" as="geometry" />
        </mxCell>
        <mxCell id="Jv009dBd6uDRELiyDNLr-23" value="" style="rounded=1;whiteSpace=wrap;html=1;" vertex="1" parent="Jv009dBd6uDRELiyDNLr-38">
          <mxGeometry x="35" y="213.8844444444444" width="400" height="124.25925925925925" as="geometry" />
        </mxCell>
        <mxCell id="Jv009dBd6uDRELiyDNLr-24" value="&lt;b&gt;Deadline&lt;/b&gt;" style="text;html=1;align=left;verticalAlign=middle;whiteSpace=wrap;rounded=0;" vertex="1" parent="Jv009dBd6uDRELiyDNLr-38">
          <mxGeometry x="25" y="90.37037037037037" width="90" height="33.888888888888886" as="geometry" />
        </mxCell>
        <mxCell id="Jv009dBd6uDRELiyDNLr-25" value="" style="rounded=1;whiteSpace=wrap;html=1;" vertex="1" parent="Jv009dBd6uDRELiyDNLr-38">
          <mxGeometry x="105" y="90.37037037037037" width="190" height="33.888888888888886" as="geometry" />
        </mxCell>
        <mxCell id="Jv009dBd6uDRELiyDNLr-36" value="Add" style="strokeWidth=1;shadow=0;dashed=0;align=center;html=1;shape=mxgraph.mockup.buttons.button;strokeColor=#666666;fontColor=#ffffff;mainText=;buttonStyle=round;fontSize=17;fontStyle=1;fillColor=#008cff;whiteSpace=wrap;" vertex="1" parent="Jv009dBd6uDRELiyDNLr-38">
          <mxGeometry x="157.5" y="550.0022222222221" width="150" height="33.888888888888886" as="geometry" />
        </mxCell>
        <mxCell id="Jv009dBd6uDRELiyDNLr-37" value="&lt;b&gt;&lt;font style=&quot;font-size: 14px;&quot;&gt;Group 3 - New Task&lt;/font&gt;&lt;/b&gt;" style="text;html=1;align=center;verticalAlign=middle;whiteSpace=wrap;rounded=0;" vertex="1" parent="Jv009dBd6uDRELiyDNLr-38">
          <mxGeometry x="157.5" y="6.777777777777777" width="150" height="33.888888888888886" as="geometry" />
        </mxCell>
        <mxCell id="Jv009dBd6uDRELiyDNLr-39" value="" style="group" vertex="1" connectable="0" parent="Jv009dBd6uDRELiyDNLr-38">
          <mxGeometry x="35" y="370.0025925925926" width="365" height="146.85185185185185" as="geometry" />
        </mxCell>
        <mxCell id="Jv009dBd6uDRELiyDNLr-40" value="" style="rounded=1;whiteSpace=wrap;html=1;" vertex="1" parent="Jv009dBd6uDRELiyDNLr-39">
          <mxGeometry width="365" height="146.85185185185185" as="geometry" />
        </mxCell>
        <mxCell id="Jv009dBd6uDRELiyDNLr-41" value="Description" style="rounded=1;whiteSpace=wrap;html=1;" vertex="1" parent="Jv009dBd6uDRELiyDNLr-39">
          <mxGeometry x="7.448979591836736" y="54.54497354497354" width="305.40816326530614" height="73.42592592592592" as="geometry" />
        </mxCell>
        <mxCell id="Jv009dBd6uDRELiyDNLr-42" value="http://example.com" style="rounded=1;whiteSpace=wrap;html=1;align=left;" vertex="1" parent="Jv009dBd6uDRELiyDNLr-39">
          <mxGeometry x="7.448979591836736" y="15.734126984126982" width="171.3265306122449" height="31.468253968253965" as="geometry" />
        </mxCell>
        <mxCell id="Jv009dBd6uDRELiyDNLr-43" value="Additional Links" style="text;html=1;align=left;verticalAlign=middle;whiteSpace=wrap;rounded=0;fontStyle=1;fontSize=14;" vertex="1" parent="Jv009dBd6uDRELiyDNLr-38">
          <mxGeometry x="35" y="340" width="135" height="33.89" as="geometry" />
        </mxCell>
        <mxCell id="Jv009dBd6uDRELiyDNLr-44" value="&lt;span style=&quot;font-size: 11px;&quot;&gt;Add Link&lt;/span&gt;" style="strokeWidth=1;shadow=0;dashed=0;align=center;html=1;shape=mxgraph.mockup.buttons.button;strokeColor=#666666;fontColor=#ffffff;mainText=;buttonStyle=round;fontSize=17;fontStyle=1;fillColor=#008cff;whiteSpace=wrap;" vertex="1" parent="Jv009dBd6uDRELiyDNLr-38">
          <mxGeometry x="155" y="349.77" width="90" height="14.35" as="geometry" />
        </mxCell>
        <mxCell id="Jv009dBd6uDRELiyDNLr-35" value="" style="rounded=1;whiteSpace=wrap;html=1;" vertex="1" parent="Jv009dBd6uDRELiyDNLr-38">
          <mxGeometry x="105" y="140.00074074074064" width="190" height="33.888888888888886" as="geometry" />
        </mxCell>
        <mxCell id="Jv009dBd6uDRELiyDNLr-34" value="&lt;b&gt;Start Date&lt;/b&gt;" style="text;html=1;align=left;verticalAlign=middle;whiteSpace=wrap;rounded=0;" vertex="1" parent="Jv009dBd6uDRELiyDNLr-38">
          <mxGeometry x="25" y="140.00074074074064" width="90" height="33.888888888888886" as="geometry" />
        </mxCell>
        <mxCell id="Jv009dBd6uDRELiyDNLr-45" value="" style="strokeWidth=1;shadow=0;dashed=0;align=center;html=1;shape=mxgraph.mockup.containers.browserWindow;rSize=0;strokeColor=#666666;strokeColor2=#008cff;strokeColor3=#c4c4c4;mainText=,;recursiveResize=0;" vertex="1" parent="1">
          <mxGeometry x="1220" y="200" width="560" height="480" as="geometry" />
        </mxCell>
        <mxCell id="Jv009dBd6uDRELiyDNLr-46" value="Page 1" style="strokeWidth=1;shadow=0;dashed=0;align=center;html=1;shape=mxgraph.mockup.containers.anchor;fontSize=17;fontColor=#666666;align=left;whiteSpace=wrap;" vertex="1" parent="Jv009dBd6uDRELiyDNLr-45">
          <mxGeometry x="60" y="12" width="110" height="26" as="geometry" />
        </mxCell>
        <mxCell id="Jv009dBd6uDRELiyDNLr-47" value="https://www.draw.io" style="strokeWidth=1;shadow=0;dashed=0;align=center;html=1;shape=mxgraph.mockup.containers.anchor;rSize=0;fontSize=17;fontColor=#666666;align=left;" vertex="1" parent="Jv009dBd6uDRELiyDNLr-45">
          <mxGeometry x="130" y="60" width="250" height="26" as="geometry" />
        </mxCell>
        <mxCell id="Jv009dBd6uDRELiyDNLr-50" value="Header" style="strokeWidth=1;shadow=0;dashed=0;align=center;html=1;shape=mxgraph.mockup.text.textBox;fontColor=#666666;align=left;fontSize=17;spacingLeft=4;spacingTop=-3;whiteSpace=wrap;strokeColor=#666666;mainText=" vertex="1" parent="Jv009dBd6uDRELiyDNLr-45">
          <mxGeometry y="110" width="560" height="60" as="geometry" />
        </mxCell>
        <mxCell id="Jv009dBd6uDRELiyDNLr-54" value="" style="group" vertex="1" connectable="0" parent="Jv009dBd6uDRELiyDNLr-45">
          <mxGeometry x="10" y="210" width="187.5" height="30" as="geometry" />
        </mxCell>
        <mxCell id="Jv009dBd6uDRELiyDNLr-51" value="Tasks (incomplete)" style="text;html=1;align=center;verticalAlign=middle;whiteSpace=wrap;rounded=0;fontSize=16;fontStyle=1" vertex="1" parent="Jv009dBd6uDRELiyDNLr-54">
          <mxGeometry width="170" height="30" as="geometry" />
        </mxCell>
        <mxCell id="Jv009dBd6uDRELiyDNLr-52" value="" style="triangle;whiteSpace=wrap;html=1;rotation=90;" vertex="1" parent="Jv009dBd6uDRELiyDNLr-54">
          <mxGeometry x="170" y="5" width="10" height="25" as="geometry" />
        </mxCell>
        <mxCell id="Jv009dBd6uDRELiyDNLr-55" value="" style="group" vertex="1" connectable="0" parent="Jv009dBd6uDRELiyDNLr-45">
          <mxGeometry x="10" y="240" width="187.5" height="30" as="geometry" />
        </mxCell>
        <mxCell id="Jv009dBd6uDRELiyDNLr-90" value="" style="group" vertex="1" connectable="0" parent="Jv009dBd6uDRELiyDNLr-55">
          <mxGeometry width="187.5" height="30" as="geometry" />
        </mxCell>
        <mxCell id="Jv009dBd6uDRELiyDNLr-56" value="In Progress" style="text;html=1;align=center;verticalAlign=middle;whiteSpace=wrap;rounded=0;fontSize=16;fontStyle=1" vertex="1" parent="Jv009dBd6uDRELiyDNLr-90">
          <mxGeometry width="170" height="30" as="geometry" />
        </mxCell>
        <mxCell id="Jv009dBd6uDRELiyDNLr-57" value="" style="triangle;whiteSpace=wrap;html=1;rotation=90;" vertex="1" parent="Jv009dBd6uDRELiyDNLr-90">
          <mxGeometry x="170" y="5" width="10" height="25" as="geometry" />
        </mxCell>
        <mxCell id="Jv009dBd6uDRELiyDNLr-88" value="Task 3" style="rounded=1;whiteSpace=wrap;html=1;fillColor=#d5e8d4;strokeColor=#82b366;" vertex="1" parent="Jv009dBd6uDRELiyDNLr-45">
          <mxGeometry x="20" y="300" width="520" height="50" as="geometry" />
        </mxCell>
        <mxCell id="Jv009dBd6uDRELiyDNLr-89" value="Task 5" style="rounded=1;whiteSpace=wrap;html=1;fillColor=#d5e8d4;strokeColor=#82b366;" vertex="1" parent="Jv009dBd6uDRELiyDNLr-45">
          <mxGeometry x="20" y="355" width="520" height="50" as="geometry" />
        </mxCell>
        <mxCell id="Jv009dBd6uDRELiyDNLr-91" value="" style="group" vertex="1" connectable="0" parent="Jv009dBd6uDRELiyDNLr-45">
          <mxGeometry x="10" y="270" width="187.5" height="30" as="geometry" />
        </mxCell>
        <mxCell id="Jv009dBd6uDRELiyDNLr-58" value="Completed" style="text;html=1;align=center;verticalAlign=middle;whiteSpace=wrap;rounded=0;fontSize=16;fontStyle=1" vertex="1" parent="Jv009dBd6uDRELiyDNLr-91">
          <mxGeometry width="170" height="30" as="geometry" />
        </mxCell>
        <mxCell id="Jv009dBd6uDRELiyDNLr-59" value="" style="triangle;whiteSpace=wrap;html=1;rotation=-90;" vertex="1" parent="Jv009dBd6uDRELiyDNLr-91">
          <mxGeometry x="170" y="5" width="10" height="25" as="geometry" />
        </mxCell>
        <UserObject label="Navigation Links" placeholders="1" name="Variable" id="Jv009dBd6uDRELiyDNLr-92">
          <mxCell style="text;html=1;strokeColor=none;fillColor=none;align=center;verticalAlign=middle;whiteSpace=wrap;overflow=hidden;" vertex="1" parent="Jv009dBd6uDRELiyDNLr-45">
            <mxGeometry x="215" y="180" width="150" height="20" as="geometry" />
          </mxCell>
        </UserObject>
        <mxCell id="Jv009dBd6uDRELiyDNLr-48" value="Mobile" style="text;html=1;align=center;verticalAlign=middle;whiteSpace=wrap;rounded=0;" vertex="1" parent="1">
          <mxGeometry x="1230" y="160" width="60" height="30" as="geometry" />
        </mxCell>
      </root>
    </mxGraphModel>
  </diagram>
</mxfile>
